<?xml version="1.0" encoding="iso-8859-1"?>
<!-- Generator: Adobe Illustrator 19.0.0, SVG Export Plug-In . SVG Version: 6.00 Build 0)  -->
<svg version="1.1" id="Layer_1" xmlns="http://www.w3.org/2000/svg" xmlns:xlink="http://www.w3.org/1999/xlink" x="0px" y="0px"
	 viewBox="0 0 512.001 512.001" style="enable-background:new 0 0 512.001 512.001;" xml:space="preserve">
<path style="fill:#2A2A2C;" d="M163.184,222.323l-0.751-0.807c-0.921-0.991-2.035-1.781-3.274-2.326l-4.639-2.037
	c-23.093-9.805-37.057-27.744-44.706-41.066c-2.011-3.506-5.959-5.438-9.959-4.882c-4.006,0.556-7.271,3.49-8.252,7.414
	c-0.432,1.733-40.324,184.988-34.596,255.334c-10.616,10.715-39.059,41.874-39.059,68.136c0,5.474,4.436,9.912,9.912,9.912h47.467
	c4.812,0,8.927-3.455,9.762-8.194c4.565-25.926,29.238-33.081,30.457-33.418c4.096-1.094,7.043-4.672,7.329-8.903
	c7.369-108.491,27.138-184.523,42.426-229.203C166.485,228.825,165.671,224.998,163.184,222.323z"/>
<path style="fill:#B99C80;" d="M37.145,457.052c-9.929,13.468-19.194,30.047-19.194,45.036c0,5.474,4.436,9.912,9.912,9.912h47.467
	c4.812,0,8.927-3.455,9.762-8.194c4.565-25.926,29.238-33.081,30.457-33.418c4.096-1.094,7.043-4.672,7.329-8.903
	c0.102-1.492,0.214-2.954,0.32-4.433H37.145z"/>
<path style="fill:#2A2A2C;" d="M360.551,378.163c-16.103-19.138-34.946-48.228-33.273-78.131c0.235-4.191-2.196-8.076-6.07-9.696
	l-1.688-0.707c-1.702-0.714-3.492-0.915-5.202-0.674c-12.916-1.889-25.18-4.77-36.507-8.58c-3.704-1.248-7.808-0.196-10.459,2.689
	l-1.063,1.158c-14.519,15.209-35.324,55.49-10.61,99.691l2.631,4.701c11.895,21.235,23.13,41.294,20.379,47.192
	c-0.611,1.307-3.651,4.655-18.687,7.501c-20.775,3.934-36.958,11.684-48.1,23.036c-9.384,9.563-15.004,21.601-16.25,34.815
	c-0.262,2.778,0.659,5.537,2.537,7.602c1.879,2.064,4.541,3.24,7.331,3.24h97.845c3.166,0,6.131-1.546,7.997-4.105
	c1.866-2.559,2.387-5.888,1.419-8.902c-0.034-0.11-3.447-11.036,1.59-19.979c3.328-5.909,9.937-10.081,19.645-12.403
	c3.394-0.811,6.112-3.35,7.155-6.68l20.812-66.529c0.225-0.722,0.367-1.464,0.423-2.218l0.443-5.898
	C363.046,382.703,362.22,380.146,360.551,378.163z"/>
<path style="fill:#B99C80;" d="M211.904,466.341c-9.384,9.563-15.004,21.601-16.25,34.815c-0.262,2.778,0.659,5.537,2.537,7.602
	c1.879,2.064,4.541,3.24,7.331,3.24h97.845c3.166,0,6.131-1.546,7.997-4.105c1.866-2.559,2.387-5.888,1.419-8.902
	c-0.034-0.11-3.447-11.036,1.59-19.979c3.328-5.909,9.937-10.081,19.645-12.403c3.394-0.811,6.112-3.35,7.155-6.68l0.9-2.878
	H223.377C219.104,459.818,215.27,462.911,211.904,466.341z"/>
<path style="fill:#56555B;" d="M480.117,175.614c-8.34-33.298-28.953-62.006-61.309-85.378
	c-26.019-18.793-59.686-34.164-100.07-45.686c-61.802-17.635-119.467-20.772-131.543-21.251
	C175.817,17.78,120.912-7.198,77.126,2.023C27.392,12.495,13.601,44.816,13.038,46.188c-0.763,1.858-0.942,3.904-0.517,5.866
	l4.83,22.249c-5.862,10.432-20.961,41.159-13.044,68.618c0.057,0.198,0.12,0.395,0.189,0.589
	c0.519,1.455,13.167,35.632,51.216,35.632c10.781,0,21.164-2.28,30.605-5.629c6.659,15.26,23.344,44.748,57.372,60.489
	c-16.111,49.331-32.968,121.518-40.139,219.714c-11.309,4.874-32.903,17.79-37.986,46.649c-0.507,2.885,0.287,5.847,2.17,8.092
	c1.885,2.244,4.662,3.539,7.592,3.539h66.052c4.468,0,8.384-2.989,9.562-7.299c0.137-0.507,14.077-51.411,33.845-113.331
	c14.15-44.32,27.771-83.29,40.452-115.843c13.278,10.072,39.573,25.502,82.253,32.419c1.11,22.356,10.619,46.378,28.013,70.364
	c14.225,19.617,29.14,33.043,32.435,35.913c5.425,6.462,11.455,17.659,9.169,22.837c-0.736,1.665-4.771,7.14-25.817,7.645
	c-25.123,0.604-42.673,7.788-52.169,21.351c-12.256,17.511-5.444,38.323-5.147,39.199c1.359,4.029,5.14,6.743,9.391,6.743H447.74
	c2.991,0,5.82-1.349,7.702-3.674c1.882-2.323,2.614-5.372,1.993-8.298l-27.399-128.967c14.344-15.353,65.74-72.138,76.557-108.667
	C519.959,217.254,489.598,184.484,480.117,175.614z"/>
<path style="fill:#3B3B3F;" d="M271.484,49.294c72.416,17.718,155.934,54.693,173.279,131.648c0,0,39.609,32.321,25.893,78.638
	c-11.79,39.813-77.828,108.453-77.828,108.453l30.586,143.966h24.325c2.991,0,5.82-1.349,7.702-3.674
	c1.882-2.323,2.614-5.372,1.993-8.298l-27.399-128.967c14.344-15.353,65.74-72.138,76.557-108.667
	c13.366-45.141-16.995-77.909-26.476-86.78c-8.34-33.298-28.953-62.006-61.309-85.378c-26.019-18.793-59.686-34.164-100.07-45.686
	c-61.802-17.635-119.467-20.772-131.543-21.251c6.699,2.533,50.013,15.56,68.288,21.464
	C260.763,46.467,266.095,47.975,271.484,49.294z"/>
<path style="fill:#FFDCAF;" d="M299.124,466.057c-12.256,17.511-5.444,38.323-5.147,39.199c1.359,4.029,5.14,6.743,9.391,6.743
	h144.374c2.991,0,5.82-1.349,7.702-3.674c1.882-2.323,2.614-5.372,1.993-8.298l-9.131-42.976H307.792
	C304.401,459.65,301.506,462.651,299.124,466.057z"/>
<path style="fill:#B99C80;" d="M447.741,511.999c2.991,0,5.82-1.349,7.702-3.674c1.882-2.323,2.614-5.372,1.993-8.298l-9.131-42.976
	h-36.564l11.673,54.948H447.741z"/>
<path style="fill:#FFDCAF;" d="M97.967,456.428c-11.732,6.322-28.067,19.333-32.401,43.941c-0.507,2.885,0.287,5.847,2.17,8.092
	c1.885,2.244,4.662,3.539,7.592,3.539h66.052c4.468,0,8.384-2.989,9.562-7.299c0.085-0.309,5.311-19.393,13.858-48.273
	L97.967,456.428L97.967,456.428z"/>
<path style="fill:#2A2A2C;" d="M140.531,75.803c-0.856,0-1.727-0.111-2.593-0.346c-5.284-1.427-8.41-6.869-6.982-12.154
	c0.811-3.007,0.464-4.312,0.278-4.532c-1.049-1.244-5.787-2.105-9.555-1.744c-5.424,0.523-10.284-3.433-10.839-8.857
	c-0.554-5.424,3.346-10.273,8.766-10.858c1.813-0.198,17.98-1.622,26.696,8.576c3.431,4.014,6.873,11.19,3.793,22.587
	C148.899,72.892,144.897,75.802,140.531,75.803z"/>
<path style="fill:#FFDCAF;" d="M85.005,173.957c18.723-32.047,17.02-91.697,17.02-91.697v-8.642c0-15.38-8.881-29.377-22.797-35.928
	L37.362,18.636C19.415,31.219,13.406,45.293,13.038,46.188c-0.763,1.858-0.942,3.904-0.517,5.866l4.83,22.249
	c-5.862,10.432-20.961,41.159-13.044,68.618c0.057,0.198,0.12,0.395,0.189,0.589c0.519,1.455,13.167,35.632,51.216,35.632
	C66.001,179.144,75.914,177.055,85.005,173.957z"/>
<path style="fill:#B99C80;" d="M102.026,82.26v-8.642c0-15.38-8.881-29.377-22.797-35.928L37.362,18.636
	c-3.625,2.541-6.755,5.142-9.457,7.685l24.983,11.371c13.915,6.551,22.797,20.548,22.797,35.928v8.642c0,0,1.702,59.65-17.02,91.697
	c-4.828,1.645-9.893,2.992-15.119,3.907c3.736,0.809,7.776,1.281,12.169,1.281c10.287,0,20.2-2.088,29.291-5.187
	C103.728,141.91,102.026,82.26,102.026,82.26z"/>
<path style="fill:#2B2B2B;" d="M53.949,90.052c-6.421,0-11.647-5.215-11.647-11.626s5.225-11.624,11.647-11.624
	s11.647,5.215,11.647,11.624C65.596,84.836,60.371,90.052,53.949,90.052z"/>
<g>
</g>
<g>
</g>
<g>
</g>
<g>
</g>
<g>
</g>
<g>
</g>
<g>
</g>
<g>
</g>
<g>
</g>
<g>
</g>
<g>
</g>
<g>
</g>
<g>
</g>
<g>
</g>
<g>
</g>
</svg>
